<svg width="21" height="21" viewBox="0 0 21 21" fill="none" xmlns="http://www.w3.org/2000/svg">
<g clip-path="url(#clip0_126_52)">
<path d="M10.5 1.3125C4.70037 1.3125 -2.44488e-05 5.13105 -2.44488e-05 9.84375C-2.44488e-05 11.7961 0.816187 13.5844 2.1697 15.024C1.55857 16.64 0.287085 18.01 0.266577 18.0264C-0.00412601 18.3135 -0.0779541 18.7318 0.0779052 19.0928C0.233765 19.4537 0.590601 19.6875 0.984351 19.6875C3.50681 19.6875 5.49607 18.6334 6.68962 17.7885C7.87498 18.1617 9.15466 18.375 10.5 18.375C16.2996 18.375 21 14.5564 21 9.84375C21 5.13105 16.2996 1.3125 10.5 1.3125ZM10.5 16.4062C9.40486 16.4062 8.32205 16.2381 7.28435 15.91L6.3533 15.6146L5.55349 16.1807C4.96697 16.5949 4.16306 17.0584 3.19509 17.3701C3.49451 16.8738 3.78572 16.316 4.0113 15.7213L4.44607 14.5688L3.60115 13.6746C2.85876 12.883 1.96873 11.5746 1.96873 9.84375C1.96873 6.22617 5.79548 3.28125 10.5 3.28125C15.2045 3.28125 19.0312 6.22617 19.0312 9.84375C19.0312 13.4613 15.2045 16.4062 10.5 16.4062Z" fill="#6C6B6B"/>
</g>
<defs>
<clipPath id="clip0_126_52">
<rect width="21" height="21" fill="white"/>
</clipPath>
</defs>
</svg>
