<svg width="19" height="19" viewBox="0 0 19 19" fill="none" xmlns="http://www.w3.org/2000/svg">
<path d="M7.125 8.90625C7.43994 8.90625 7.74199 8.78114 7.96469 8.55844C8.18739 8.33574 8.3125 8.03369 8.3125 7.71875C8.3125 7.40381 8.18739 7.10176 7.96469 6.87906C7.74199 6.65636 7.43994 6.53125 7.125 6.53125C6.81006 6.53125 6.50801 6.65636 6.28531 6.87906C6.06261 7.10176 5.9375 7.40381 5.9375 7.71875C5.9375 8.03369 6.06261 8.33574 6.28531 8.55844C6.50801 8.78114 6.81006 8.90625 7.125 8.90625ZM13.0625 7.71875C13.0625 8.03369 12.9374 8.33574 12.7147 8.55844C12.492 8.78114 12.1899 8.90625 11.875 8.90625C11.5601 8.90625 11.258 8.78114 11.0353 8.55844C10.8126 8.33574 10.6875 8.03369 10.6875 7.71875C10.6875 7.40381 10.8126 7.10176 11.0353 6.87906C11.258 6.65636 11.5601 6.53125 11.875 6.53125C12.1899 6.53125 12.492 6.65636 12.7147 6.87906C12.9374 7.10176 13.0625 7.40381 13.0625 7.71875ZM5.67209 11.3442C5.8122 11.2741 5.97431 11.2623 6.12311 11.3112C6.27191 11.3602 6.39535 11.4659 6.46653 11.6054L6.46831 11.609L6.4885 11.6434C6.50928 11.6773 6.54372 11.7301 6.59359 11.7972C6.69394 11.9308 6.85484 12.1155 7.08759 12.3019C7.54656 12.6688 8.30834 13.0625 9.5 13.0625C10.6917 13.0625 11.4534 12.6688 11.9124 12.3025C12.1458 12.1155 12.3067 11.9308 12.4064 11.7972C12.4518 11.737 12.4937 11.6741 12.5317 11.609L12.5341 11.6048C12.6057 11.4654 12.7296 11.3599 12.8787 11.3114C13.0278 11.2629 13.1901 11.2754 13.33 11.3462C13.47 11.4169 13.5763 11.5401 13.6257 11.6889C13.6751 11.8377 13.6637 12 13.5939 12.1404V12.141L13.5927 12.1422V12.1434L13.5903 12.1469L13.5856 12.1558C13.5671 12.1912 13.5473 12.2259 13.5262 12.2598C13.4882 12.3233 13.4318 12.4094 13.357 12.5091C13.1538 12.7777 12.9176 13.0197 12.654 13.2293C11.9997 13.753 10.9802 14.25 9.5 14.25C8.01978 14.25 7.00031 13.753 6.346 13.2288C6.08266 13.0195 5.84667 12.7779 5.64359 12.5097C5.55928 12.3971 5.48271 12.2788 5.41441 12.1558L5.40966 12.1469L5.40788 12.1434L5.40728 12.1416L5.40669 12.1404C5.33637 11.9996 5.32483 11.8367 5.3746 11.6874C5.42437 11.5381 5.53137 11.4146 5.67209 11.3442ZM9.5 1.1875C4.90913 1.1875 1.1875 4.90913 1.1875 9.5C1.1875 14.0909 4.90913 17.8125 9.5 17.8125C14.0909 17.8125 17.8125 14.0909 17.8125 9.5C17.8125 4.90913 14.0909 1.1875 9.5 1.1875ZM2.375 9.5C2.375 5.56522 5.56522 2.375 9.5 2.375C13.4348 2.375 16.625 5.56522 16.625 9.5C16.625 13.4348 13.4348 16.625 9.5 16.625C5.56522 16.625 2.375 13.4348 2.375 9.5Z" fill="#116530"/>
</svg>
