<svg width="23" height="23" viewBox="0 0 23 23" fill="none" xmlns="http://www.w3.org/2000/svg">
<path d="M17.71 3.45001C19.3039 3.45001 20.608 4.81506 20.6954 6.53431L20.7 6.72061V16.2794C20.7 18.024 19.4522 19.4488 17.879 19.5454L17.71 19.55H5.28999C3.69609 19.55 2.39199 18.185 2.30459 16.4657L2.29999 16.2794V6.72061C2.29999 4.97606 3.54774 3.55121 5.11979 3.45461L5.28999 3.45001H17.71ZM17.5375 4.60001H5.46249C4.39759 4.60001 3.52589 5.51196 3.45459 6.66656L3.44999 6.81836V16.1817C3.44999 17.3558 4.27799 18.3172 5.32449 18.3954L5.46249 18.4H17.5375C18.6024 18.4 19.4741 17.4881 19.5454 16.3346L19.55 16.1805V6.81951C19.55 5.64536 18.722 4.68396 17.6755 4.60576L17.5375 4.60001ZM7.87864 8.05231C8.59164 8.05231 9.19884 8.16386 9.69679 8.39616C10.0038 8.53876 10.1269 8.88376 9.97279 9.16781C9.89074 9.30705 9.75951 9.41049 9.60496 9.45775C9.45042 9.505 9.28377 9.49265 9.13789 9.42311C8.82969 9.27936 8.41109 9.20231 7.87864 9.20231C6.69874 9.20231 5.84314 10.1591 5.84314 11.5023C5.84314 12.7892 6.77809 13.8 7.87864 13.8C8.56519 13.8 9.03094 13.3964 9.09764 13.0261L9.10684 12.9341V12.0762L8.67099 12.075C8.32829 12.075 8.04999 11.8174 8.04999 11.5C8.04999 11.2183 8.26964 10.9825 8.55944 10.9342L8.67214 10.925L9.72784 10.9262C9.86858 10.922 10.0064 10.9667 10.118 11.0526C10.2295 11.1386 10.3078 11.2605 10.3396 11.3977L10.35 11.5012V12.9341C10.35 13.9426 9.33109 14.95 7.87864 14.95C6.04439 14.95 4.59999 13.3883 4.59999 11.5012C4.59999 9.56801 5.95354 8.05231 7.87864 8.05231ZM12.65 8.05001C12.7846 8.04997 12.9149 8.09713 13.0183 8.18329C13.1217 8.26944 13.1916 8.38913 13.2158 8.52151L13.225 8.62501V14.375C13.2253 14.5187 13.1717 14.6573 13.0749 14.7635C12.9781 14.8696 12.845 14.9357 12.7019 14.9487C12.5588 14.9617 12.4161 14.9206 12.3017 14.8336C12.1874 14.7466 12.1098 14.6199 12.0842 14.4785L12.075 14.375V8.62501C12.075 8.47251 12.1356 8.32626 12.2434 8.21843C12.3512 8.11059 12.4975 8.05001 12.65 8.05001ZM17.825 8.05001C17.9687 8.04975 18.1073 8.10329 18.2134 8.2001C18.3196 8.2969 18.3857 8.42996 18.3987 8.57306C18.4117 8.71616 18.3706 8.85893 18.2836 8.97327C18.1966 9.0876 18.0699 9.16521 17.9285 9.19081L17.825 9.20001H16.1V11.5H17.825C17.9687 11.4997 18.1073 11.5533 18.2134 11.6501C18.3196 11.7469 18.3857 11.88 18.3987 12.0231C18.4117 12.1662 18.3706 12.3089 18.2836 12.4233C18.1966 12.5376 18.0699 12.6152 17.9285 12.6408L17.825 12.65H16.1V14.375C16.1003 14.5187 16.0467 14.6573 15.9499 14.7635C15.8531 14.8696 15.72 14.9357 15.5769 14.9487C15.4338 14.9617 15.2911 14.9206 15.1767 14.8336C15.0624 14.7466 14.9848 14.6199 14.9592 14.4785L14.95 14.375V8.62501C14.95 8.47251 15.0106 8.32626 15.1184 8.21843C15.2262 8.11059 15.3725 8.05001 15.525 8.05001H17.825Z" fill="#116530"/>
</svg>
