<svg width="25" height="25" viewBox="0 0 25 25" fill="none" xmlns="http://www.w3.org/2000/svg">
<g opacity="0.73">
<path d="M20.8333 8.33337H14.9875L16.1573 4.82608C16.3677 4.19275 16.2615 3.49067 15.8708 2.949C15.4802 2.40733 14.8469 2.08337 14.1792 2.08337H12.5C12.1906 2.08337 11.8979 2.22087 11.699 2.45837L6.80313 8.33337H4.16667C3.01771 8.33337 2.08334 9.26775 2.08334 10.4167V19.7917C2.08334 20.9407 3.01771 21.875 4.16667 21.875H18.0281C18.452 21.8736 18.8654 21.7436 19.2138 21.5022C19.5621 21.2608 19.829 20.9193 19.9792 20.523L22.851 12.8657C22.8946 12.7487 22.9169 12.6249 22.9167 12.5V10.4167C22.9167 9.26775 21.9823 8.33337 20.8333 8.33337ZM4.16667 10.4167H6.25V19.7917H4.16667V10.4167ZM20.8333 12.3115L18.0281 19.7917H8.33334V9.75212L12.9875 4.16671H14.1813L12.5542 9.04483C12.5013 9.20141 12.4866 9.36832 12.5112 9.53173C12.5358 9.69514 12.5989 9.85034 12.6955 9.98446C12.792 10.1186 12.9191 10.2277 13.0663 10.3029C13.2135 10.3781 13.3764 10.4171 13.5417 10.4167H20.8333V12.3115Z" fill="#6C6B6B"/>
</g>
</svg>
