<svg width="20" height="20" viewBox="0 0 20 20" fill="none" xmlns="http://www.w3.org/2000/svg">
<path fill-rule="evenodd" clip-rule="evenodd" d="M15.8333 3.33335H4.16666C3.94564 3.33335 3.73368 3.42115 3.5774 3.57743C3.42112 3.73371 3.33332 3.94567 3.33332 4.16669V15.8334C3.33332 16.0544 3.42112 16.2663 3.5774 16.4226C3.73368 16.5789 3.94564 16.6667 4.16666 16.6667H15.8333C16.0543 16.6667 16.2663 16.5789 16.4226 16.4226C16.5789 16.2663 16.6667 16.0544 16.6667 15.8334V4.16669C16.6667 3.94567 16.5789 3.73371 16.4226 3.57743C16.2663 3.42115 16.0543 3.33335 15.8333 3.33335ZM4.16666 1.66669C3.50362 1.66669 2.86773 1.93008 2.39889 2.39892C1.93005 2.86776 1.66666 3.50365 1.66666 4.16669V15.8334C1.66666 16.4964 1.93005 17.1323 2.39889 17.6011C2.86773 18.07 3.50362 18.3334 4.16666 18.3334H15.8333C16.4964 18.3334 17.1322 18.07 17.6011 17.6011C18.0699 17.1323 18.3333 16.4964 18.3333 15.8334V4.16669C18.3333 3.50365 18.0699 2.86776 17.6011 2.39892C17.1322 1.93008 16.4964 1.66669 15.8333 1.66669H4.16666Z" fill="#116530"/>
<path d="M9.16666 5.83337H10.8333V14.1667H9.16666V5.83337Z" fill="#116530"/>
<path d="M12.5 10.8334H14.1667V14.1667H12.5V10.8334Z" fill="#116530"/>
<path d="M5.83331 8.33337H7.49998V14.1667H5.83331V8.33337Z" fill="#116530"/>
</svg>
