<svg width="29" height="29" viewBox="0 0 29 29" fill="none" xmlns="http://www.w3.org/2000/svg">
<g opacity="0.73">
<path d="M19.0071 3.625H9.99292L3.625 9.99292V19.0071L9.99292 25.375H19.0071L25.375 19.0071V9.99292L19.0071 3.625ZM22.9583 18.0042L18.0042 22.9583H10.9958L6.04167 18.0042V10.9958L10.9958 6.04167H18.0042L22.9583 10.9958V18.0042Z" fill="#6C6B6B"/>
<path d="M14.5 20.5417C15.1673 20.5417 15.7083 20.0007 15.7083 19.3333C15.7083 18.666 15.1673 18.125 14.5 18.125C13.8327 18.125 13.2917 18.666 13.2917 19.3333C13.2917 20.0007 13.8327 20.5417 14.5 20.5417Z" fill="#6C6B6B"/>
<path d="M13.2917 8.45837H15.7083V16.9167H13.2917V8.45837Z" fill="#6C6B6B"/>
</g>
</svg>
