<svg width="27" height="27" viewBox="0 0 27 27" fill="none" xmlns="http://www.w3.org/2000/svg">
<path d="M14.625 7.93125V4.5C14.625 4.20163 14.7435 3.91548 14.9545 3.7045C15.1655 3.49353 15.4516 3.375 15.75 3.375C16.0451 3.37624 16.328 3.49341 16.5375 3.70125L24.4125 11.5763C24.5179 11.6808 24.6016 11.8053 24.6588 11.9424C24.7159 12.0794 24.7453 12.2265 24.7453 12.375C24.7453 12.5235 24.7159 12.6706 24.6588 12.8076C24.6016 12.9447 24.5179 13.0692 24.4125 13.1737L16.5375 21.0487C16.3796 21.2036 16.1795 21.3084 15.9623 21.3501C15.7452 21.3919 15.5205 21.3687 15.3164 21.2834C15.1124 21.1982 14.9379 21.0547 14.815 20.8709C14.692 20.6871 14.6259 20.4711 14.625 20.25V16.7625H13.6687C11.8913 16.736 10.1294 17.0966 8.50537 17.8193C6.88129 18.5419 5.43393 19.6094 4.26375 20.9475C4.12273 21.1352 3.92649 21.2742 3.70256 21.3448C3.47862 21.4154 3.2382 21.4141 3.015 21.3412C2.78786 21.2646 2.59114 21.1174 2.45352 20.9211C2.31591 20.7248 2.24461 20.4897 2.25 20.25C2.25 9.99 11.34 8.235 14.625 7.93125ZM13.6687 14.49C14.4212 14.4876 15.1729 14.5365 15.9187 14.6363C16.1851 14.6767 16.4281 14.8113 16.6036 15.0157C16.779 15.2201 16.8754 15.4806 16.875 15.75V17.5387L22.0275 12.375L16.875 7.21125V9C16.875 9.29837 16.7565 9.58452 16.5455 9.7955C16.3345 10.0065 16.0484 10.125 15.75 10.125C14.7262 10.125 6.62625 10.35 4.87125 17.3588C7.41859 15.4806 10.5039 14.4745 13.6687 14.49Z" fill="#6C6B6B"/>
</svg>
