<svg width="44" height="44" viewBox="0 0 44 44" fill="none" xmlns="http://www.w3.org/2000/svg">
<path fill-rule="evenodd" clip-rule="evenodd" d="M22 38.5C31.1126 38.5 38.5 31.1126 38.5 22C38.5 12.8874 31.1126 5.50002 22 5.50002C12.8874 5.50002 5.50002 12.8874 5.50002 22C5.50002 31.1126 12.8874 38.5 22 38.5ZM22 40.3334C32.1255 40.3334 40.3334 32.1255 40.3334 22C40.3334 11.8745 32.1255 3.66669 22 3.66669C11.8745 3.66669 3.66669 11.8745 3.66669 22C3.66669 32.1255 11.8745 40.3334 22 40.3334Z" fill="black"/>
<path d="M11 32.6609C11 31.714 11.7077 30.9137 12.65 30.8092C19.7221 30.0264 24.31 30.097 31.3665 30.8266C31.7189 30.8636 32.0528 31.0024 32.3276 31.2261C32.6024 31.4498 32.8061 31.7487 32.9138 32.0862C33.0215 32.4238 33.0286 32.7854 32.9342 33.1269C32.8398 33.4684 32.648 33.775 32.3822 34.0093C24.0542 41.2684 19.2949 41.1685 11.5867 34.0166C11.2108 33.6683 11 33.1733 11 32.6618V32.6609Z" fill="black"/>
<path fill-rule="evenodd" clip-rule="evenodd" d="M31.2721 31.7378C24.2715 31.0136 19.7496 30.9458 12.75 31.7204C12.2788 31.7726 11.9167 32.175 11.9167 32.6618C11.9167 32.924 12.0258 33.1724 12.21 33.3447C16.0307 36.8885 18.9255 38.49 21.7553 38.5C24.5951 38.5101 27.6458 36.9215 31.78 33.319C31.9113 33.2021 32.0058 33.0496 32.0521 32.88C32.0984 32.7103 32.0944 32.5309 32.0406 32.3635C31.9868 32.1961 31.8855 32.048 31.7491 31.937C31.6127 31.8261 31.447 31.7572 31.2721 31.7387V31.7378ZM12.5492 29.898C19.6955 29.107 24.3504 29.1785 31.4619 29.9145C31.992 29.9699 32.4945 30.1786 32.9078 30.5151C33.3211 30.8516 33.6274 31.3013 33.789 31.8092C33.9507 32.3171 33.9608 32.8611 33.8181 33.3746C33.6753 33.8881 33.3859 34.3489 32.9854 34.7005C28.7916 38.3561 25.2991 40.3471 21.7498 40.3334C18.1904 40.3205 14.8519 38.2956 10.9643 34.6885C10.686 34.4293 10.4641 34.1154 10.3125 33.7665C10.1609 33.4176 10.0829 33.0413 10.0834 32.6609C10.082 31.9774 10.3329 31.3175 10.7879 30.8076C11.2429 30.2976 11.87 29.9734 12.5492 29.8971V29.898Z" fill="black"/>
<path d="M29.3334 18.3333C29.3334 20.2783 28.5607 22.1435 27.1855 23.5188C25.8102 24.894 23.9449 25.6667 22 25.6667C20.0551 25.6667 18.1898 24.894 16.8146 23.5188C15.4393 22.1435 14.6667 20.2783 14.6667 18.3333C14.6667 16.3884 15.4393 14.5231 16.8146 13.1479C18.1898 11.7726 20.0551 11 22 11C23.9449 11 25.8102 11.7726 27.1855 13.1479C28.5607 14.5231 29.3334 16.3884 29.3334 18.3333V18.3333Z" fill="black"/>
<path fill-rule="evenodd" clip-rule="evenodd" d="M22 23.8333C23.4587 23.8333 24.8577 23.2539 25.8891 22.2224C26.9206 21.191 27.5 19.792 27.5 18.3333C27.5 16.8746 26.9206 15.4757 25.8891 14.4442C24.8577 13.4128 23.4587 12.8333 22 12.8333C20.5413 12.8333 19.1424 13.4128 18.1109 14.4442C17.0795 15.4757 16.5 16.8746 16.5 18.3333C16.5 19.792 17.0795 21.191 18.1109 22.2224C19.1424 23.2539 20.5413 23.8333 22 23.8333V23.8333ZM22 25.6667C23.9449 25.6667 25.8102 24.894 27.1855 23.5188C28.5607 22.1435 29.3334 20.2783 29.3334 18.3333C29.3334 16.3884 28.5607 14.5231 27.1855 13.1479C25.8102 11.7726 23.9449 11 22 11C20.0551 11 18.1898 11.7726 16.8146 13.1479C15.4393 14.5231 14.6667 16.3884 14.6667 18.3333C14.6667 20.2783 15.4393 22.1435 16.8146 23.5188C18.1898 24.894 20.0551 25.6667 22 25.6667V25.6667Z" fill="black"/>
</svg>
