<svg width="25" height="25" viewBox="0 0 25 25" fill="none" xmlns="http://www.w3.org/2000/svg">
<path d="M20.8335 16.6667H14.9877L16.1575 20.174C16.3679 20.8074 16.2616 21.5095 15.871 22.0511C15.4804 22.5928 14.847 22.9167 14.1793 22.9167H12.5002C12.1908 22.9167 11.8981 22.7792 11.6991 22.5417L6.80329 16.6667H4.16683C3.01787 16.6667 2.0835 15.7324 2.0835 14.5834V5.20842C2.0835 4.05946 3.01787 3.12508 4.16683 3.12508H18.0283C18.4521 3.12649 18.8656 3.2565 19.2139 3.49792C19.5623 3.73934 19.8292 4.0808 19.9793 4.47717L22.8512 12.1345C22.8948 12.2514 22.917 12.3753 22.9168 12.5001V14.5834C22.9168 15.7324 21.9825 16.6667 20.8335 16.6667ZM4.16683 14.5834H6.25016V5.20842H4.16683V14.5834ZM20.8335 12.6886L18.0283 5.20842H8.3335V15.248L12.9877 20.8334H14.1814L12.5543 15.9553C12.5015 15.7987 12.4868 15.6318 12.5114 15.4684C12.5359 15.305 12.5991 15.1498 12.6956 15.0157C12.7922 14.8815 12.9193 14.7724 13.0665 14.6972C13.2136 14.622 13.3766 14.583 13.5418 14.5834H20.8335V12.6886Z" fill="white"/>
</svg>
